<?xml version="1.0" standalone="no"?>
<!DOCTYPE svg PUBLIC "-//W3C//DTD SVG 20010904//EN"
 "http://www.w3.org/TR/2001/REC-SVG-20010904/DTD/svg10.dtd">
<svg version="1.0" xmlns="http://www.w3.org/2000/svg"
 width="512.000000pt" height="512.000000pt" viewBox="0 0 512.000000 512.000000"
 preserveAspectRatio="xMidYMid meet">
<metadata>
Created by potrace 1.16, written by Peter Selinger 2001-2019
</metadata>
<g transform="translate(0.000000,512.000000) scale(0.100000,-0.100000)"
fill="#000000" stroke="none">
<path d="M823 5021 c-104 -38 -180 -107 -231 -211 l-27 -55 -3 -994 -2 -995
-143 -145 c-149 -152 -209 -230 -258 -335 -54 -116 -71 -189 -76 -341 -5 -138
-3 -147 66 -565 40 -234 81 -461 93 -505 12 -44 52 -158 90 -253 l68 -173 0
-185 0 -184 560 0 560 0 0 185 0 185 39 97 c21 54 44 115 50 135 l12 38 927 2
927 3 60 29 c77 38 153 114 191 191 l29 60 3 794 c2 697 4 797 18 812 14 16
23 13 122 -37 140 -72 232 -94 381 -94 138 0 201 14 456 100 144 48 192 60
242 60 l63 0 0 400 0 400 -61 0 c-60 0 -64 1 -151 66 l-89 67 121 123 c157
160 175 196 175 344 0 91 -3 112 -25 155 -31 64 -111 144 -175 175 -44 22 -64
25 -160 25 -157 0 -170 -8 -430 -266 l-211 -209 -137 0 -136 0 -3 418 -3 417
-29 60 c-38 77 -114 153 -191 191 l-60 29 -1300 2 c-1248 2 -1302 2 -1352 -16z
m2622 -164 c54 -24 103 -73 129 -127 20 -43 21 -62 24 -443 l3 -397 -38 -16
c-20 -9 -57 -29 -80 -46 l-43 -29 0 248 c0 230 -2 250 -20 281 -11 18 -34 41
-52 52 -32 20 -53 20 -1208 20 -1155 0 -1176 0 -1208 -20 -18 -11 -41 -34 -52
-52 -20 -32 -20 -53 -20 -1286 0 -1368 -4 -1284 57 -1332 l27 -21 -19 -52
c-30 -86 -96 -231 -112 -249 -20 -22 -66 -23 -87 -3 -8 9 -18 30 -21 48 -3 18
-5 757 -3 1642 3 1526 4 1612 21 1650 34 76 104 132 182 146 22 4 589 6 1260
5 1152 -1 1222 -2 1260 -19z m-165 -914 l0 -297 -174 -176 c-214 -214 -231
-243 -224 -378 5 -94 17 -128 70 -188 l31 -35 -86 -87 -87 -87 -85 -213 c-97
-242 -105 -291 -62 -373 36 -67 93 -103 175 -107 64 -4 75 -1 255 71 l187 75
0 -154 0 -154 -819 0 c-772 0 -820 1 -825 18 -2 9 -7 64 -11 122 -8 138 -25
196 -74 252 -58 65 -123 91 -221 86 -64 -2 -84 -8 -125 -33 -70 -43 -104 -97
-136 -217 l-27 -103 -1 1138 -1 1137 1120 0 1120 0 0 -297z m1504 258 c75 -47
109 -164 71 -244 -8 -18 -188 -205 -399 -416 l-384 -384 -114 90 c-62 50 -132
101 -155 114 -24 13 -43 26 -43 29 0 3 186 191 413 417 387 386 415 412 457
420 56 11 107 3 154 -26z m-1068 -600 l-159 -159 -81 -4 c-93 -4 -142 -24
-196 -78 -54 -54 -74 -103 -78 -195 -4 -80 -4 -80 -50 -127 -36 -38 -49 -45
-59 -36 -41 34 -55 116 -29 166 8 15 126 138 263 274 269 268 303 293 422 308
142 18 144 29 -33 -149z m1014 -236 c62 -47 122 -85 132 -85 17 0 18 -14 18
-240 0 -223 -1 -240 -18 -240 -10 0 -112 -32 -227 -72 l-210 -72 -140 0 c-127
-1 -147 1 -211 25 -83 30 -636 358 -676 400 -22 23 -28 39 -28 75 0 39 5 51
35 81 l35 35 85 -4 c114 -6 189 -44 374 -193 l144 -115 218 0 219 0 0 80 0 80
-97 0 -98 0 165 165 c91 91 165 165 166 165 0 0 52 -38 114 -85z m-1262 -538
l171 -104 -180 -179 -179 -179 -137 138 -138 137 145 145 c80 80 145 145 146
145 0 0 77 -46 172 -103z m-2875 -1525 c15 -23 46 -54 69 -69 37 -25 50 -28
127 -28 79 0 90 2 131 30 38 26 53 47 101 143 68 136 135 330 189 552 35 144
44 168 70 193 55 50 149 25 164 -45 3 -12 20 -205 37 -428 46 -601 38 -732
-63 -995 l-35 -90 -423 0 -422 0 -49 124 c-77 192 -95 266 -169 713 -78 466
-84 549 -50 682 31 124 91 226 195 334 l90 95 5 -585 5 -584 28 -42z m2519
967 c-14 -14 -236 -99 -257 -99 -27 0 -45 18 -45 45 0 18 28 94 86 234 l15 35
104 -104 c58 -57 101 -107 97 -111z m486 -629 c-3 -552 -3 -566 -24 -610 -26
-54 -75 -103 -129 -127 -37 -17 -97 -18 -914 -21 l-873 -3 7 23 c4 13 9 104
12 203 l6 179 19 -52 c23 -63 86 -130 153 -162 48 -24 58 -25 291 -28 225 -3
244 -2 298 18 117 44 196 162 196 293 0 72 -22 116 -72 147 -31 19 -51 20
-408 20 -357 0 -377 -1 -408 -20 -42 -26 -72 -75 -73 -125 -2 -35 -26 207 -28
278 l-1 27 843 0 c823 0 843 1 875 20 18 11 41 34 52 52 18 31 20 51 20 278
l0 245 78 78 77 78 3 -113 c1 -62 1 -367 0 -678z m-1128 -304 c0 -33 -39 -86
-80 -110 -32 -19 -51 -21 -230 -21 -179 0 -198 2 -230 21 -41 24 -80 77 -80
110 l0 24 310 0 310 0 0 -24z m-1110 -1016 l0 -80 -400 0 -400 0 0 80 0 80
400 0 400 0 0 -80z"/>
<path d="M1840 4640 l0 -80 320 0 320 0 0 80 0 80 -320 0 -320 0 0 -80z"/>
<path d="M2980 4700 c-13 -13 -20 -33 -20 -60 0 -27 7 -47 20 -60 13 -13 33
-20 60 -20 27 0 47 7 60 20 13 13 20 33 20 60 0 27 -7 47 -20 60 -13 13 -33
20 -60 20 -27 0 -47 -7 -60 -20z"/>
<path d="M3300 4700 c-13 -13 -20 -33 -20 -60 0 -27 7 -47 20 -60 13 -13 33
-20 60 -20 27 0 47 7 60 20 13 13 20 33 20 60 0 27 -7 47 -20 60 -13 13 -33
20 -60 20 -27 0 -47 -7 -60 -20z"/>
<path d="M1200 3840 l0 -240 960 0 960 0 0 240 0 240 -960 0 -960 0 0 -240z
m1760 0 l0 -80 -800 0 -800 0 0 80 0 80 800 0 800 0 0 -80z"/>
<path d="M1680 3360 l0 -80 520 0 520 0 0 80 0 80 -520 0 -520 0 0 -80z"/>
<path d="M1680 3040 l0 -80 360 0 360 0 0 80 0 80 -360 0 -360 0 0 -80z"/>
<path d="M2560 3040 l0 -80 80 0 80 0 0 80 0 80 -80 0 -80 0 0 -80z"/>
<path d="M1680 2720 l0 -80 520 0 520 0 0 80 0 80 -520 0 -520 0 0 -80z"/>
<path d="M1680 2400 l0 -80 440 0 440 0 0 80 0 80 -440 0 -440 0 0 -80z"/>
<path d="M1680 2080 l0 -80 440 0 440 0 0 80 0 80 -440 0 -440 0 0 -80z"/>
</g>
</svg>
