<?xml version="1.0" standalone="no"?>
<!DOCTYPE svg PUBLIC "-//W3C//DTD SVG 20010904//EN"
 "http://www.w3.org/TR/2001/REC-SVG-20010904/DTD/svg10.dtd">
<svg version="1.0" xmlns="http://www.w3.org/2000/svg"
 width="1280.000000pt" height="1300.000000pt" viewBox="0 0 1280.000000 1300.000000"
 preserveAspectRatio="xMidYMid meet">
<metadata>
Created by potrace 1.16, written by Peter Selinger 2001-2019
</metadata>
<g transform="translate(0.000000,1300.000000) scale(0.100000,-0.100000)"
fill="#000000" stroke="none">
<path d="M6120 12119 c-214 -11 -429 -37 -698 -85 -149 -26 -173 -32 -182 -45
-3 -5 -36 -40 -74 -79 -75 -77 -76 -76 34 -50 68 17 307 49 485 67 222 21 786
24 1005 5 478 -43 947 -133 1357 -261 178 -56 188 -58 155 -35 -12 8 -22 22
-22 29 0 12 5 12 28 3 41 -18 47 -25 32 -42 -10 -13 -10 -17 1 -20 147 -44
417 -155 639 -264 85 -42 161 -75 168 -75 7 1 11 -2 8 -5 -3 -3 13 -16 35 -29
53 -30 61 -22 23 20 -16 17 -8 12 18 -12 26 -24 45 -47 43 -51 -2 -4 1 -7 8
-7 13 0 200 -124 382 -254 215 -153 465 -377 647 -579 l76 -85 43 41 c51 51
59 37 -129 228 -216 219 -419 397 -637 557 -33 24 -64 47 -70 52 -40 30 -245
164 -310 203 -44 26 -96 57 -115 69 -44 28 -315 175 -322 175 -4 0 -50 21
-105 46 -137 65 -255 114 -272 114 -7 0 -29 9 -48 21 -20 13 -44 19 -59 16
-13 -2 -22 -2 -19 1 8 9 -40 29 -182 76 -620 204 -1278 291 -1943 255z"/>
<path d="M4880 11903 c-25 -8 -53 -22 -64 -32 -10 -9 -28 -15 -40 -14 -11 1
-15 0 -8 -3 6 -3 12 -9 12 -14 0 -11 -107 -33 -120 -25 -19 12 -181 -41 -294
-96 -32 -16 -62 -29 -67 -29 -21 0 -351 -160 -464 -224 -66 -38 -136 -77 -155
-88 -204 -115 -573 -385 -796 -583 -112 -99 -386 -375 -472 -475 -41 -47 -84
-96 -96 -110 -18 -20 -98 -121 -138 -175 -5 -5 -32 -42 -62 -81 -93 -123 -306
-450 -306 -470 0 -3 -9 -19 -21 -35 -83 -117 -379 -758 -379 -821 0 -13 -6
-32 -13 -43 -22 -33 -104 -285 -113 -345 -2 -14 -11 -52 -20 -85 -10 -33 -18
-72 -18 -87 -1 -14 -4 -24 -8 -21 -5 2 -8 -10 -8 -27 0 -17 -7 -44 -15 -60
-17 -33 -77 -378 -100 -575 -72 -620 -19 -1358 140 -1950 40 -151 75 -262 91
-293 7 -15 14 -34 14 -43 0 -8 5 -20 11 -26 6 -6 12 -27 14 -47 6 -65 53 -175
68 -160 3 3 3 -3 1 -13 -14 -51 231 -564 399 -838 91 -147 298 -449 327 -475
3 -3 25 -32 49 -65 36 -48 168 -204 192 -225 3 -3 12 -15 21 -28 37 -55 405
-414 504 -493 89 -70 119 -95 135 -111 10 -9 71 -55 136 -103 65 -47 126 -92
135 -100 22 -18 231 -155 283 -185 22 -12 56 -33 75 -46 102 -66 601 -314 632
-314 8 0 18 -4 23 -9 15 -13 143 -53 157 -49 7 3 -9 10 -36 17 -181 45 -738
335 -1016 529 -66 46 -256 188 -277 207 -6 5 -46 39 -88 75 -43 36 -112 95
-153 132 -63 56 -79 65 -91 55 -14 -11 -14 -10 -2 5 12 16 3 28 -85 115 -55
54 -131 134 -171 178 -61 69 -91 104 -156 185 -7 8 -42 51 -78 95 -81 99 -219
285 -219 295 0 5 -16 36 -35 70 -19 33 -40 79 -46 101 -7 21 -16 39 -22 39 -5
0 -7 11 -5 25 3 13 2 22 -2 20 -7 -4 -18 41 -26 100 -4 32 6 55 25 55 27 0
140 -90 201 -161 119 -138 383 -386 595 -560 106 -87 304 -239 319 -245 6 -2
166 151 355 341 190 189 346 343 348 341 2 -2 -21 -27 -51 -56 -30 -29 -54
-55 -53 -59 1 -3 -2 -7 -8 -9 -14 -4 -74 -64 -72 -71 1 -3 -2 -7 -8 -9 -14 -4
-74 -64 -72 -71 1 -3 -1 -6 -5 -6 -10 0 -77 -67 -75 -74 1 -3 -1 -6 -5 -6 -14
0 -77 -69 -71 -78 3 -6 2 -7 -4 -4 -13 8 -86 -67 -76 -78 5 -4 3 -5 -3 -2 -6
3 -50 -34 -98 -82 l-88 -88 74 -51 c110 -77 237 -162 242 -162 3 0 31 -17 63
-39 178 -118 562 -316 768 -397 39 -15 74 -31 80 -36 14 -12 25 -10 25 7 0 8
5 15 10 15 6 0 10 7 10 15 0 8 -4 15 -10 15 -5 0 -10 23 -10 50 0 50 5 55 50
52 3 0 4 33 2 74 -3 60 -1 75 12 80 11 4 16 19 16 45 0 28 4 39 15 39 11 0 15
11 15 40 l0 40 49 0 48 0 7 61 c3 34 6 88 6 120 l0 59 50 0 50 0 0 40 c0 36 3
40 24 40 23 0 24 4 31 80 7 77 10 83 42 79 3 0 10 6 15 15 11 19 28 21 28 3 0
-8 13 -13 35 -13 l35 0 0 73 c0 67 2 74 23 82 12 5 25 7 28 5 4 -2 9 3 13 11
7 18 26 20 26 2 0 -8 13 -13 34 -13 l34 0 7 78 7 78 79 0 79 0 0 55 0 55 77 0
c58 0 81 -4 95 -17 11 -10 19 -13 18 -8 -5 22 1 27 15 15 8 -7 15 -9 15 -4 0
4 7 -1 16 -12 15 -19 15 -18 5 2 -17 35 -36 47 -51 29 -17 -21 -30 -9 -30 27
l0 30 80 -7 c77 -7 80 -6 80 14 0 18 6 21 40 21 32 0 40 -4 40 -18 0 -15 8
-18 38 -17 l37 1 3 52 3 52 40 0 c28 0 39 4 39 15 0 12 15 15 79 15 53 0 81 4
83 12 6 17 78 18 78 1 0 -10 34 -13 161 -13 127 0 160 3 156 13 -3 9 8 13 39
13 29 0 44 -5 44 -13 0 -10 22 -13 80 -13 64 0 80 -3 80 -15 0 -12 20 -15 120
-15 100 0 120 -2 120 -15 0 -11 -11 -15 -40 -15 -22 0 -40 -4 -40 -10 0 -5 18
-10 40 -10 22 0 40 -4 40 -10 0 -5 18 -10 40 -10 38 0 40 -2 40 -30 0 -28 2
-30 40 -30 22 0 40 5 40 10 0 6 18 10 40 10 36 0 40 -2 40 -25 0 -22 4 -25 40
-25 l40 0 0 -55 0 -55 83 -1 c45 -1 96 -2 112 -3 34 -2 58 11 49 26 -4 6 2 6
13 -1 11 -6 23 -7 27 -4 3 3 6 2 6 -2 0 -5 -12 -22 -27 -37 -25 -26 -21 -42 5
-16 7 7 12 8 12 2 0 -5 -11 -18 -25 -28 -18 -13 -23 -25 -19 -41 3 -14 -1 -29
-12 -39 -12 -13 -13 -17 -3 -16 8 1 33 2 57 1 l42 -1 0 -75 c0 -42 4 -76 10
-76 24 -3 73 -7 110 -8 40 -1 40 -1 40 -41 0 -29 4 -40 15 -40 11 0 15 -11 15
-40 l0 -40 65 0 65 0 0 -80 c0 -64 3 -80 15 -80 11 0 15 -11 15 -40 0 -29 -4
-40 -15 -40 -17 0 -22 -69 -5 -71 13 -2 81 -6 120 -8 l30 -1 0 -120 c0 -100 3
-120 15 -120 12 0 15 -16 15 -80 0 -66 -3 -80 -16 -80 -12 0 -14 -9 -12 -37
l3 -38 53 0 c56 0 61 -4 36 -29 -14 -15 -11 -20 9 -17 5 1 7 -9 5 -21 -2 -18
-9 -22 -28 -20 -18 1 -21 -1 -11 -7 19 -12 -21 -25 -52 -16 -17 5 -19 4 -7 -4
8 -6 23 -11 32 -11 9 0 19 -6 21 -12 4 -10 8 -10 15 1 6 7 15 10 22 6 7 -4 15
-3 19 4 4 6 19 12 34 13 15 1 27 6 27 11 0 4 4 6 9 3 11 -7 143 39 135 47 -3
3 3 3 14 0 11 -2 40 5 65 16 25 12 50 21 55 21 13 0 316 123 407 165 128 59
355 174 415 210 247 148 315 191 376 235 38 28 93 67 122 87 l53 37 -323 325
-323 326 326 -324 327 -324 83 68 c193 157 257 214 403 358 84 84 189 192 232
242 104 118 96 110 123 124 32 17 43 -1 35 -54 -13 -89 -97 -235 -205 -360
-242 -279 -495 -536 -704 -716 -116 -100 -345 -280 -430 -339 -152 -104 -325
-220 -329 -220 -2 0 -41 -22 -85 -50 -44 -27 -83 -50 -86 -50 -3 0 -29 -15
-58 -33 -29 -18 -97 -55 -152 -82 -55 -27 -106 -56 -113 -65 -8 -8 -11 -9 -7
-3 4 9 1 11 -9 7 -9 -3 -13 -11 -9 -17 3 -5 1 -7 -5 -3 -5 3 -43 -9 -83 -27
-64 -30 -70 -35 -53 -45 10 -6 16 -12 11 -12 -4 0 -15 5 -25 11 -14 9 -29 6
-73 -14 -30 -14 -73 -31 -97 -38 -47 -14 -47 -18 0 -30 l33 -9 -35 4 c-19 3
-44 7 -55 11 l-20 7 20 -18 20 -17 -20 8 c-27 10 -59 8 -63 -4 -2 -5 -11 -7
-20 -3 -16 5 -16 5 0 -11 9 -9 29 -17 45 -18 l28 -1 -29 -8 c-22 -7 -33 -5
-48 10 -15 14 -26 17 -38 10 -10 -5 -21 -6 -25 -2 -5 4 -4 1 0 -7 6 -11 4 -13
-11 -7 -15 6 -17 5 -6 -5 6 -7 29 -13 49 -13 l37 0 -30 -12 c-28 -12 -28 -13
16 -10 25 1 52 5 60 8 8 3 31 11 50 17 19 7 45 15 58 18 12 3 22 9 22 14 0 5
9 9 21 9 18 0 39 8 134 50 11 5 31 12 45 15 79 22 493 222 611 296 44 27 90
54 102 59 50 22 252 156 452 302 14 10 113 89 207 164 42 34 120 101 173 150
l95 88 -42 46 -43 45 46 -43 46 -43 125 128 c202 207 319 343 503 588 117 156
311 470 431 700 156 298 333 754 407 1050 2 11 14 54 25 95 12 42 28 109 36
150 139 695 160 1261 70 1915 -8 61 -20 125 -26 144 -6 19 -12 48 -13 65 -2
17 -3 37 -4 44 -1 7 -4 11 -8 9 -5 -3 -9 21 -10 52 -3 66 -11 104 -69 316 -85
312 -174 555 -326 890 l-59 130 -271 272 c-150 150 -276 269 -281 266 -6 -4
-7 -1 -2 7 6 9 4 11 -4 5 -9 -5 -7 -13 8 -29 12 -12 21 -27 21 -32 0 -6 5 -15
11 -21 11 -11 48 -107 49 -125 0 -5 -4 -8 -10 -8 -5 0 -10 10 -10 23 0 13 -4
27 -9 33 -5 5 -11 23 -14 39 -4 29 -4 29 -6 -5 -1 -27 -4 -31 -11 -20 -7 11
-9 7 -6 -15 2 -16 1 -24 -1 -17 -4 11 -23 18 -23 8 0 -2 16 -42 36 -88 107
-247 197 -611 188 -763 -10 -170 -61 -433 -97 -502 -10 -18 -17 -38 -17 -44 0
-7 -9 -32 -20 -56 -11 -24 -29 -62 -40 -86 -11 -24 -20 -48 -20 -55 0 -15 -49
-67 -63 -67 -7 0 -12 -11 -13 -25 -1 -51 0 -50 -84 -50 -73 0 -80 2 -80 20 0
17 7 20 40 20 22 0 40 5 40 10 0 6 -18 10 -40 10 -22 0 -40 5 -40 10 0 6 -33
10 -80 10 -73 0 -80 2 -80 20 0 17 7 20 40 20 22 0 40 5 40 10 0 6 -47 10
-120 10 -73 0 -120 4 -120 10 0 6 -47 10 -120 10 -113 0 -120 1 -120 20 0 17
-7 20 -40 20 l-40 0 0 40 0 40 -40 0 c-22 0 -40 5 -40 10 0 6 -47 10 -120 10
-73 0 -120 4 -120 10 0 6 -60 10 -160 10 -153 0 -160 1 -160 20 0 17 7 20 40
20 22 0 40 5 40 10 0 6 -44 10 -113 10 -70 0 -117 4 -124 11 -6 6 -29 10 -51
7 -32 -3 -38 -1 -30 9 6 7 7 13 2 13 -11 0 -75 -61 -319 -300 -104 -102 -201
-194 -215 -203 -27 -19 -72 -22 -100 -7 -11 6 -87 76 -170 157 -166 162 -176
177 -153 256 11 38 12 56 3 83 -6 19 -16 34 -21 34 -15 0 -10 99 6 128 8 15
62 74 120 132 98 99 104 106 85 118 -10 8 -29 23 -42 34 -13 11 -35 27 -50 36
-16 9 -28 20 -28 24 0 4 -4 8 -9 8 -12 0 -145 90 -149 101 -5 12 -22 12 -22 1
0 -5 10 -14 23 -21 22 -11 22 -11 -3 -5 -24 7 -42 8 -67 5 -7 0 -13 -10 -13
-21 0 -17 -7 -20 -40 -20 -22 0 -40 5 -40 10 0 6 -7 10 -15 10 -8 0 -15 -6
-15 -14 0 -7 7 -19 15 -26 20 -17 19 -33 -5 -61 -16 -19 -19 -20 -13 -5 4 13
3 17 -5 12 -8 -5 -10 -2 -6 8 3 9 2 16 -4 16 -6 0 -8 9 -5 20 3 11 0 21 -6 21
-26 3 -30 4 -38 13 -5 5 -2 6 6 1 9 -5 12 -3 9 6 -3 8 -11 13 -17 11 -7 -1
-10 1 -7 6 3 4 -8 24 -25 43 -16 19 -30 37 -30 42 -1 4 -2 11 -3 17 0 5 -10
16 -21 24 -20 15 -20 15 0 12 15 -3 21 1 21 16 0 18 -1 18 -13 2 -11 -16 -13
-16 -19 -1 -3 9 -9 15 -14 12 -4 -2 -13 7 -20 20 -7 14 -17 25 -22 25 -5 0 -4
9 2 19 7 14 7 22 -2 27 -6 4 -8 3 -5 -2 3 -6 2 -16 -2 -23 -6 -10 -17 -1 -39
31 -17 24 -38 51 -48 59 -10 8 13 -26 50 -76 171 -228 282 -439 355 -670 136
-436 121 -964 -41 -1375 -34 -85 -135 -289 -175 -353 -50 -80 -167 -232 -234
-305 l-67 -74 81 -116 c44 -64 119 -173 167 -242 48 -69 108 -156 134 -195 26
-38 103 -151 171 -250 68 -99 158 -231 200 -293 42 -62 80 -110 85 -107 5 3
12 0 16 -6 4 -8 3 -9 -4 -5 -7 4 -12 4 -12 0 0 -3 64 -99 142 -213 78 -113
167 -242 196 -286 30 -43 83 -121 119 -172 l64 -92 -10 -73 c-26 -185 -96
-295 -225 -354 -93 -42 -190 -51 -329 -29 l-116 18 -34 51 c-19 28 -55 72 -81
97 -25 26 -46 56 -46 67 0 11 -10 27 -22 36 -13 9 -16 14 -8 10 13 -7 13 -6 0
12 -8 10 -17 21 -20 24 -11 11 -120 160 -120 164 0 2 -28 42 -62 88 -35 47
-76 103 -93 125 -16 23 -33 39 -36 38 -3 -2 -6 2 -6 9 0 23 -114 177 -125 170
-7 -4 -8 -2 -4 5 5 7 -21 50 -66 109 -40 53 -84 114 -97 135 -12 20 -27 34
-33 31 -5 -3 -8 2 -6 12 2 11 -2 18 -10 16 -6 -1 -11 1 -10 5 5 17 -24 54 -37
49 -9 -3 -12 0 -9 9 3 8 -8 31 -25 52 -17 21 -31 42 -31 48 0 6 -13 24 -30 40
-16 16 -28 31 -25 33 8 8 -17 32 -26 26 -5 -3 -8 -1 -7 4 2 6 -3 19 -10 29
-27 39 -160 225 -219 307 -34 47 -70 99 -80 116 -11 19 -24 29 -33 26 -313
-103 -570 -144 -825 -131 -537 28 -1017 238 -1390 610 -114 113 -231 259 -304
378 -81 133 -183 354 -211 456 -6 23 -15 41 -20 41 -5 0 -7 6 -5 13 2 6 1 28
-4 47 l-8 35 -429 -427 -429 -427 485 -486 c451 -452 507 -508 488 -495 -4 3
-226 223 -493 490 l-486 484 -582 -579 -582 -580 580 583 580 582 -585 588
-585 587 587 -585 588 -585 415 415 c228 228 415 421 415 428 0 7 4 11 9 7 16
-9 22 13 15 50 -4 21 -10 32 -17 28 -6 -4 -8 0 -4 11 10 26 -14 170 -29 179
-8 4 -14 18 -13 30 0 21 1 21 10 2 6 -14 8 -6 4 30 -8 80 -21 154 -28 162 -9
8 -9 -9 3 -87 5 -39 6 -78 1 -95 -8 -27 -9 -25 -10 20 -1 28 -6 57 -11 65 -8
11 -9 -1 -6 -40 4 -43 3 -47 -3 -20 -6 24 -9 28 -10 13 -1 -17 -7 -23 -26 -23
-14 0 -25 -6 -25 -12 0 -10 -3 -9 -9 1 -7 11 -9 11 -14 0 -3 -8 -6 0 -6 18 -1
29 2 32 29 31 20 -1 30 -6 31 -17 0 -12 3 -11 9 4 12 28 12 55 -1 55 -5 0 -7
-6 -3 -12 5 -8 0 -7 -11 2 -14 11 -19 12 -22 3 -3 -7 -11 -13 -19 -13 -8 0
-14 -4 -14 -10 0 -5 -18 -10 -40 -10 -33 0 -40 -3 -40 -20 0 -17 -7 -20 -40
-20 -22 0 -40 -4 -40 -10 0 -6 -33 -10 -80 -10 -47 0 -80 -4 -80 -10 0 -5 -18
-10 -40 -10 -38 0 -40 -2 -40 -30 0 -30 -1 -30 -55 -30 -30 0 -55 -4 -55 -10
0 -5 7 -10 15 -10 8 0 15 -9 15 -20 0 -16 -7 -20 -35 -20 -26 0 -35 4 -36 18
0 13 -2 12 -9 -5 -5 -12 -12 -101 -16 -198 -7 -173 -8 -177 -28 -172 -12 3
-66 16 -121 30 -55 14 -154 35 -221 46 -275 47 -455 125 -502 217 -12 23 10
115 83 354 40 133 40 121 1 205 -20 42 -36 80 -36 83 0 4 -8 16 -17 27 -15 19
-15 19 -9 -10 5 -25 4 -27 -5 -12 -6 10 -8 25 -5 34 4 9 1 32 -5 51 -9 26 -14
31 -21 21 -7 -10 -8 -8 -3 7 3 11 -2 52 -11 90 -23 100 -43 275 -44 381 -1
212 63 541 159 813 36 104 38 112 16 88 -13 -15 -41 -42 -62 -59 -21 -18 -8
-1 29 37 58 60 73 84 112 178 78 186 244 478 355 626 l41 54 -57 61 -58 60 57
-55 c37 -34 61 -51 67 -45 5 6 33 40 63 76 232 287 477 515 788 734 196 138
532 320 765 415 95 39 383 138 508 176 31 9 57 19 57 23 0 12 103 113 124 121
40 16 -35 10 -84 -7z m-2798 -3928 c-2 -14 -7 -23 -10 -21 -3 3 -20 -49 -37
-117 -18 -67 -38 -135 -44 -152 -6 -16 -22 -70 -36 -118 -29 -97 -28 -96 -82
-37 -54 58 -175 359 -140 347 7 -2 15 -21 18 -43 l7 -39 -1 47 c0 28 -5 44
-10 41 -6 -4 -8 3 -4 18 4 13 7 32 7 42 0 14 9 17 45 17 25 0 45 -4 45 -10 0
-5 18 -10 40 -10 38 0 40 2 40 30 l0 30 84 0 83 0 -5 -25z m9137 -407 c-4 -73
-2 -75 34 -42 l32 29 -31 -35 -31 -35 9 -170 c20 -360 -2 -1111 -42 -1465 -13
-121 -48 -339 -56 -352 -4 -5 13 -31 37 -56 l44 -47 -42 39 -42 39 -6 -29
c-46 -198 -104 -369 -167 -489 -27 -50 -80 -126 -85 -121 -2 2 7 64 21 137 74
386 102 696 92 1009 -10 335 -62 577 -180 847 -20 45 -36 87 -36 95 0 7 25 60
56 118 l55 105 -353 -352 -353 -353 400 -402 400 -403 -403 400 -402 400 -523
-520 -522 -520 520 523 520 522 -550 553 -550 552 552 -550 553 -550 365 365
c201 201 368 373 371 383 3 9 10 14 16 11 6 -4 8 -3 5 3 -3 5 7 34 23 64 16
30 40 74 53 99 60 114 118 213 113 195 -3 -11 -1 -27 4 -35 6 -10 10 -11 10
-2 0 7 15 12 40 12 22 0 39 3 39 8 -3 17 1 52 6 52 3 0 5 -15 4 -32z m-2451
-2393 c-53 -49 -60 -66 -38 -93 25 -30 35 -28 77 18 21 22 43 40 49 40 30 0
23 -24 -20 -70 -47 -50 -56 -69 -33 -71 6 0 25 -16 41 -35 26 -31 27 -37 14
-50 -13 -14 -25 -5 -106 74 -62 61 -92 98 -92 113 0 13 22 44 57 80 52 53 59
57 73 43 13 -14 11 -19 -22 -49z m-4038 -85 c45 -23 63 -24 123 -8 24 6 54 8
68 5 13 -3 97 -77 185 -164 172 -170 185 -190 158 -249 -19 -41 -569 -593
-603 -605 -56 -22 -80 -6 -249 164 -153 154 -162 166 -162 202 0 21 5 55 12
77 10 34 9 44 -12 84 -17 35 -21 57 -17 91 5 43 13 54 173 215 93 94 183 179
199 189 39 24 76 24 125 -1z m3925 -84 c23 -21 35 -42 35 -60 0 -23 8 -30 60
-53 l60 -27 -21 -19 c-21 -19 -21 -19 -64 2 -51 25 -63 26 -87 4 -25 -22 -23
-32 14 -70 26 -27 30 -37 22 -51 -6 -9 -16 -17 -21 -17 -6 0 -53 45 -106 101
l-95 100 26 30 c48 52 102 94 123 94 11 0 36 -15 54 -34z m-192 -184 c15 -15
27 -36 27 -45 0 -10 8 -17 18 -17 27 0 82 -58 82 -86 0 -36 -112 -154 -134
-142 -24 13 -20 21 30 72 52 53 56 85 11 100 -24 9 -31 6 -67 -29 -33 -32 -40
-36 -46 -22 -3 9 -10 14 -15 11 -19 -11 -8 5 31 46 22 23 40 46 40 51 0 8 -28
39 -36 39 -2 0 -22 -16 -44 -37 -38 -34 -42 -35 -58 -20 -15 16 -14 20 23 53
69 61 99 67 138 26z"/>
<path d="M4459 4894 c-99 -99 -182 -189 -185 -201 -8 -29 2 -67 21 -86 25 -25
28 -65 10 -112 -9 -26 -14 -54 -10 -66 4 -12 54 -68 112 -125 162 -159 201
-194 218 -194 8 0 35 18 58 40 43 39 43 40 39 98 -3 40 1 68 11 88 20 39 234
254 264 265 14 5 53 9 88 9 59 0 65 2 99 36 65 65 59 77 -118 253 -134 132
-157 152 -178 146 -77 -22 -107 -25 -136 -12 -15 6 -29 15 -32 18 -3 4 -22 10
-43 14 l-38 7 -180 -178z m303 -80 c148 -77 140 -274 -14 -339 -21 -8 -45 -15
-55 -15 -68 0 -154 56 -179 117 -27 64 -6 163 42 204 57 49 147 64 206 33z"/>
<path d="M10333 10298 l-42 -43 59 -80 c73 -99 92 -126 137 -195 45 -70 113
-199 110 -208 -1 -4 3 -8 8 -10 6 -1 130 -122 278 -270 l267 -267 -48 90 c-63
116 -176 310 -208 355 -13 19 -57 84 -96 143 -65 97 -173 244 -188 257 -3 3
-19 23 -35 45 -16 22 -43 56 -60 76 -16 19 -52 61 -79 92 -26 31 -51 57 -55
57 -4 0 -26 -19 -48 -42z"/>
<path d="M5619 9186 c-3 -4 -36 -9 -73 -11 -142 -9 -343 -74 -506 -162 -255
-138 -478 -376 -604 -644 -92 -194 -140 -437 -130 -659 11 -272 87 -503 241
-739 108 -166 330 -362 524 -463 60 -31 86 -43 182 -82 20 -8 95 -27 165 -42
175 -38 411 -39 577 -5 131 28 253 69 355 122 110 56 108 54 85 81 l-19 23 23
-21 23 -22 62 43 c501 353 720 979 546 1565 -33 111 -129 314 -183 388 -42 57
-87 107 -87 96 0 -15 16 -36 26 -34 5 1 10 -4 13 -11 2 -7 -2 -10 -11 -7 -11
5 -13 -1 -10 -23 2 -16 8 -29 13 -29 5 0 9 -8 9 -17 -1 -16 -2 -16 -15 1 -8
11 -16 29 -16 40 -1 17 -2 18 -6 4 -7 -26 -53 -24 -53 2 0 15 7 20 25 20 36 0
31 17 -6 22 -19 3 -36 -1 -45 -9 -17 -17 -19 -47 -2 -37 7 4 8 3 4 -4 -4 -8
-37 -12 -87 -12 -46 0 -79 -4 -79 -10 0 -6 -33 -10 -80 -10 l-80 0 0 -30 0
-30 -80 0 c-47 0 -80 -4 -80 -10 0 -6 -33 -10 -80 -10 l-80 0 0 -30 c0 -28 -2
-30 -40 -30 -22 0 -40 -4 -40 -10 0 -6 -33 -10 -80 -10 -47 0 -80 -4 -80 -10
0 -5 18 -10 40 -10 33 0 40 -3 40 -20 0 -19 -7 -20 -120 -20 -73 0 -120 -4
-120 -10 0 -6 -33 -10 -80 -10 l-80 0 0 -50 0 -50 -40 0 c-22 0 -40 5 -40 10
0 6 -18 10 -40 10 -38 0 -40 -2 -40 -30 l0 -30 -80 0 c-47 0 -80 -4 -80 -10 0
-6 -33 -10 -80 -10 -47 0 -80 -4 -80 -10 0 -5 18 -10 40 -10 33 0 40 -3 40
-20 0 -18 -7 -20 -80 -20 -47 0 -80 -4 -80 -10 0 -6 -33 -10 -80 -10 -47 0
-80 -4 -80 -10 0 -5 18 -10 40 -10 34 0 40 -3 40 -20 0 -20 -5 -21 -102 -18
-91 3 -103 5 -106 21 -4 18 34 68 48 64 13 -4 62 63 57 78 -4 10 -1 12 10 8
11 -4 14 -2 11 8 -3 8 -15 13 -28 11 -12 -1 -28 5 -35 14 -11 16 -12 16 -18 0
-4 -10 -1 -16 7 -16 7 0 19 -7 26 -16 12 -13 3 -25 -56 -85 -37 -38 -74 -69
-80 -69 -7 0 -23 13 -36 28 -13 16 -29 27 -35 25 -6 -2 -15 1 -19 8 -4 8 -3 9
4 5 7 -4 12 -3 12 3 0 5 -4 12 -9 15 -4 3 -7 16 -6 28 1 13 0 15 -2 6 -5 -18
-18 -24 -26 -10 -2 4 -2 1 -1 -5 2 -7 -1 -13 -7 -13 -6 0 -13 9 -16 20 -3 11
-9 20 -14 20 -18 0 -8 -16 37 -64 31 -32 49 -44 54 -36 5 8 9 7 13 -5 4 -9 3
-13 -3 -10 -21 13 -9 -13 13 -28 22 -14 22 -15 3 -36 -21 -24 -42 -27 -49 -8
-3 8 -11 6 -26 -8 l-20 -20 31 -2 c17 -1 36 -7 42 -13 12 -12 3 -12 -46 -1
-42 10 -51 0 -16 -16 l22 -10 -22 -5 c-14 -4 -22 -2 -22 6 0 7 -9 21 -20 31
-11 10 -17 22 -14 26 3 5 -3 6 -12 2 -12 -4 -15 -3 -10 5 4 7 0 15 -9 18 -10
4 -14 13 -10 28 5 16 4 18 -4 6 -15 -22 -20 -9 -12 35 l7 40 24 -26 c14 -15
38 -41 54 -58 26 -28 46 -39 46 -26 0 3 -27 32 -60 64 -33 33 -60 66 -60 73 1
7 9 31 20 53 11 22 19 48 20 57 0 26 32 88 42 82 4 -3 5 3 1 12 -5 13 -3 15 7
9 9 -5 11 -4 6 4 -6 9 34 90 87 176 73 118 243 295 368 383 89 63 213 129 330
176 68 26 218 66 253 66 11 0 28 8 38 17 15 13 19 14 16 3 -2 -11 5 -13 32
-10 19 3 98 4 175 4 157 -2 250 -18 400 -66 113 -37 320 -137 320 -155 0 -6 4
-15 9 -20 5 -5 6 -3 2 5 -10 17 4 15 25 -4 10 -9 15 -23 12 -32 -4 -15 -3 -15
6 -2 9 13 15 8 12 -12 0 -3 7 -5 17 -4 24 4 64 -24 58 -41 -3 -8 -2 -12 2 -9
13 8 44 -22 36 -35 -4 -8 -3 -10 5 -5 6 4 20 2 29 -5 9 -7 -3 9 -28 35 -155
165 -439 313 -702 366 -100 21 -357 39 -369 26z"/>
<path d="M8068 8501 c-59 -59 -112 -119 -119 -133 -9 -22 -7 -35 17 -88 27
-61 27 -62 11 -108 -10 -26 -17 -56 -17 -67 0 -12 58 -78 153 -172 174 -174
181 -177 248 -116 38 35 41 40 38 87 -5 106 -8 100 124 234 71 73 117 126 109
129 -6 3 -9 9 -6 15 4 7 9 7 13 -1 5 -7 18 -7 46 0 22 6 59 9 83 6 41 -4 46
-2 82 37 22 22 40 50 40 60 0 10 -16 34 -35 53 -19 19 -35 30 -35 25 0 -4 14
-21 30 -37 17 -16 30 -34 30 -41 0 -7 -16 -28 -36 -48 -36 -36 -37 -36 -100
-30 -40 4 -68 3 -77 -4 -13 -11 -62 -10 -74 1 -3 4 0 13 7 22 10 12 10 15 -4
15 -9 0 -16 -4 -16 -10 0 -5 -4 -10 -8 -10 -5 0 -15 23 -22 50 -7 28 -17 50
-22 50 -4 0 -8 7 -8 16 0 17 -38 53 -55 53 -5 0 0 -8 11 -18 33 -27 64 -96 64
-141 0 -52 -35 -125 -74 -155 -90 -69 -224 -37 -276 65 -75 148 87 318 243
255 9 -4 17 -3 17 3 0 10 -55 22 -110 22 -26 0 -51 12 -95 45 -33 25 -62 45
-65 44 -3 0 -53 -49 -112 -108z"/>
<path d="M5157 1363 c-12 -11 -8 -20 28 -56 19 -19 35 -43 36 -53 0 -16 2 -16
11 4 13 26 28 29 28 6 0 -14 2 -14 16 -3 14 11 18 11 28 -2 11 -16 24 -21 116
-40 30 -6 111 -24 180 -40 166 -38 476 -61 805 -61 244 0 615 22 705 42 25 5
90 19 145 30 55 12 118 26 140 32 22 5 52 12 68 15 15 3 27 9 27 15 0 5 14 14
31 20 17 6 34 21 39 34 5 13 16 24 25 24 8 0 15 4 15 10 0 5 -12 7 -27 5 -70
-11 -298 -46 -390 -60 -304 -45 -739 -64 -1048 -46 -199 12 -509 43 -595 60
-25 5 -81 15 -125 21 -44 6 -99 16 -123 22 -32 8 -46 8 -55 -1 -8 -8 -4 -11
19 -12 24 -2 23 -3 -11 -8 -50 -9 -79 4 -72 30 5 19 -3 25 -16 12z"/>
</g>
</svg>
