<?xml version="1.0" standalone="no"?>
<!DOCTYPE svg PUBLIC "-//W3C//DTD SVG 20010904//EN"
 "http://www.w3.org/TR/2001/REC-SVG-20010904/DTD/svg10.dtd">
<svg version="1.0" xmlns="http://www.w3.org/2000/svg"
 width="512.000000pt" height="512.000000pt" viewBox="0 0 512.000000 512.000000"
 preserveAspectRatio="xMidYMid meet">
<metadata>
Created by potrace 1.16, written by Peter Selinger 2001-2019
</metadata>
<g transform="translate(0.000000,512.000000) scale(0.100000,-0.100000)"
fill="#000000" stroke="none">
<path d="M353 5026 c-100 -32 -190 -113 -241 -216 l-27 -55 -3 -324 c-3 -334
0 -372 38 -475 43 -113 165 -263 257 -314 15 -9 14 -13 -11 -42 -15 -18 -42
-63 -61 -100 -69 -137 -65 -42 -65 -1557 l0 -1370 24 -45 24 -46 -24 -48 c-29
-57 -33 -154 -8 -212 20 -49 70 -100 119 -123 39 -18 120 -19 2300 -19 2238 0
2260 0 2293 20 18 11 41 34 52 52 19 32 20 52 20 568 0 516 -1 536 -20 568
-11 18 -34 41 -52 52 -32 19 -52 20 -728 20 -676 0 -696 -1 -728 -20 -18 -11
-41 -34 -52 -52 -19 -32 -20 -52 -20 -540 l0 -508 -80 0 -80 0 0 508 c0 488
-1 508 -20 540 -11 18 -34 41 -52 52 -32 19 -52 20 -728 20 -676 0 -696 -1
-728 -20 -18 -11 -41 -34 -52 -52 -19 -32 -20 -52 -20 -540 l0 -508 -162 0
-163 0 3 72 c3 61 -1 81 -21 121 l-24 47 23 47 24 46 0 474 0 473 1788 0
c1766 0 1787 0 1820 20 18 11 41 34 52 52 19 32 20 52 20 728 0 676 -1 696
-20 728 -11 18 -34 41 -52 52 -32 19 -52 20 -728 20 -676 0 -696 -1 -728 -20
-18 -11 -41 -34 -52 -52 -19 -32 -20 -52 -20 -540 l0 -508 -80 0 -80 0 0 508
c0 488 -1 508 -20 540 -11 18 -34 41 -52 52 -32 19 -52 20 -620 20 l-588 0 0
80 0 80 1468 0 c1446 0 1467 0 1500 20 18 11 41 34 52 52 19 32 20 52 20 728
0 676 -1 696 -20 728 -11 18 -34 41 -52 52 -32 19 -52 20 -728 20 -676 0 -696
-1 -728 -20 -18 -11 -41 -34 -52 -52 -19 -32 -20 -52 -20 -540 l0 -508 -80 0
-80 0 0 508 c0 488 -1 508 -20 540 -11 18 -34 41 -52 52 -32 19 -52 20 -728
20 -676 0 -696 -1 -728 -20 -18 -11 -41 -34 -52 -52 -19 -32 -20 -52 -20 -540
l0 -508 -255 0 c-140 0 -255 2 -255 4 0 2 7 23 15 46 11 32 15 90 15 236 l0
194 108 0 c121 0 156 13 192 72 17 29 20 51 20 168 0 116 -3 139 -20 167 -34
57 -62 67 -188 73 l-115 5 -12 42 c-29 98 -111 190 -215 241 l-55 27 -260 2
c-196 2 -270 -1 -302 -11z m547 -170 c57 -30 120 -99 120 -131 0 -3 -62 -5
-138 -5 -204 0 -230 -19 -277 -210 l-27 -110 -170 0 -170 0 4 153 c3 124 7
158 22 187 34 65 86 109 156 131 14 4 120 7 235 6 183 -2 214 -4 245 -21z
m1260 -296 l0 -160 320 0 320 0 0 160 0 160 160 0 160 0 0 -480 0 -480 -640 0
-640 0 0 480 0 480 160 0 160 0 0 -160z m480 80 l0 -80 -160 0 -160 0 0 80 0
80 160 0 160 0 0 -80z m1280 -80 l0 -160 320 0 320 0 0 160 0 160 160 0 160 0
0 -480 0 -480 -640 0 -640 0 0 480 0 480 160 0 160 0 0 -160z m480 80 l0 -80
-160 0 -160 0 0 80 0 80 160 0 160 0 0 -80z m-3040 -160 l0 -80 -305 0 c-168
0 -305 3 -305 8 0 4 7 40 17 80 l17 72 288 0 288 0 0 -80z m-322 -427 c-3
-164 -5 -192 -22 -216 -34 -50 -72 -69 -147 -75 l-69 -5 0 -153 c0 -85 -2
-154 -4 -154 -2 0 -11 -3 -19 -6 -11 -4 -45 33 -116 129 l-101 134 0 266 0
267 241 0 241 0 -4 -187z m3842 -533 l0 -80 -1780 0 c-1546 0 -1785 -2 -1809
-15 -28 -14 -29 -14 -57 26 -15 23 -55 65 -88 95 l-59 54 1896 0 1897 0 0 -80z
m-4300 -106 c54 -72 82 -100 113 -115 116 -52 243 15 265 140 l7 42 42 -30
c57 -42 117 -120 142 -185 31 -84 51 -219 51 -350 l0 -118 -117 4 c-101 3
-126 7 -173 29 -98 46 -170 142 -186 246 l-6 43 -79 0 c-90 0 -90 1 -68 -102
37 -172 195 -331 367 -367 30 -6 153 -11 282 -11 149 0 238 -4 254 -11 35 -16
52 -61 36 -98 -20 -50 -44 -53 -327 -49 -249 4 -261 5 -340 31 -93 31 -211
105 -268 168 -111 124 -164 258 -172 440 -7 145 11 238 64 327 20 34 38 62 39
62 1 0 34 -43 74 -96z m1260 -454 l0 -320 -89 0 -89 0 -12 30 c-17 42 -90 104
-138 118 -22 7 -65 12 -96 12 l-56 0 0 240 0 240 240 0 240 0 0 -320z m320
-160 l0 -160 320 0 320 0 0 160 0 160 160 0 160 0 0 -480 0 -480 -640 0 -640
0 0 240 0 240 24 0 c31 0 85 38 113 79 22 32 23 43 23 217 l0 184 80 0 80 0 0
-160z m480 80 l0 -80 -160 0 -160 0 0 80 0 80 160 0 160 0 0 -80z m1280 -80
l0 -160 320 0 320 0 0 160 0 160 160 0 160 0 0 -480 0 -480 -640 0 -640 0 0
480 0 480 160 0 160 0 0 -160z m480 80 l0 -80 -160 0 -160 0 0 80 0 80 160 0
160 0 0 -80z m-3795 -429 c143 -94 279 -131 475 -131 l120 0 0 -160 0 -160
-400 0 -400 0 0 317 0 317 65 -68 c36 -37 99 -89 140 -115z m1075 -211 l0
-240 -160 0 -160 0 0 159 0 159 84 3 c75 4 89 8 128 34 23 17 57 52 73 77 17
26 31 47 33 47 1 1 2 -107 2 -239z m-480 -1011 l0 -611 -29 -29 -29 -29 -131
0 -131 0 0 480 0 480 -80 0 -80 0 0 -480 0 -480 -131 0 -131 0 -29 29 -29 29
0 456 c0 428 1 456 18 456 35 0 124 51 177 101 54 51 115 152 115 191 0 17 14
18 245 18 l245 0 0 -611z m3680 531 l0 -80 -1760 0 -1760 0 0 80 0 80 1760 0
1760 0 0 -80z m-2720 -720 l0 -160 320 0 320 0 0 160 0 160 160 0 160 0 0
-480 0 -480 -640 0 -640 0 0 480 0 480 160 0 160 0 0 -160z m480 80 l0 -80
-160 0 -160 0 0 80 0 80 160 0 160 0 0 -80z m1280 -80 l0 -160 320 0 320 0 0
160 0 160 160 0 160 0 0 -480 0 -480 -640 0 -640 0 0 480 0 480 160 0 160 0 0
-160z m480 80 l0 -80 -160 0 -160 0 0 80 0 80 160 0 160 0 0 -80z m-3680 -800
l0 -80 -131 0 -131 0 -29 29 c-16 16 -29 39 -29 51 0 12 13 35 29 51 l29 29
131 0 131 0 0 -80z m451 51 c37 -37 37 -65 0 -102 l-29 -29 -131 0 -131 0 0
80 0 80 131 0 131 0 29 -29z"/>
</g>
</svg>
