<?xml version="1.0" standalone="no"?>
<!DOCTYPE svg PUBLIC "-//W3C//DTD SVG 20010904//EN"
 "http://www.w3.org/TR/2001/REC-SVG-20010904/DTD/svg10.dtd">
<svg version="1.0" xmlns="http://www.w3.org/2000/svg"
 width="353.000000pt" height="383.000000pt" viewBox="0 0 353.000000 383.000000"
 preserveAspectRatio="xMidYMid meet">
<metadata>
Created by potrace 1.16, written by Peter Selinger 2001-2019
</metadata>
<g transform="translate(0.000000,383.000000) scale(0.100000,-0.100000)"
fill="#000000" stroke="none">
<path d="M1545 3391 c-119 -22 -174 -38 -280 -82 -455 -188 -782 -605 -886
-1130 -31 -152 -33 -451 -5 -604 58 -319 228 -652 432 -846 461 -438 1158
-501 1681 -152 257 171 481 494 572 827 54 195 74 465 51 663 -63 549 -396
1023 -860 1229 -234 103 -475 136 -705 95z m328 -86 c262 -25 545 -171 754
-389 354 -368 493 -916 366 -1436 -14 -58 -27 -106 -28 -108 -2 -2 -14 7 -27
20 -19 18 -23 29 -17 48 13 45 10 115 -7 138 -22 32 -52 28 -68 -8 -9 -23 -15
-27 -24 -18 -10 10 -17 10 -31 1 -21 -13 -21 -14 -37 115 l-6 54 26 -17 c14
-10 33 -15 41 -11 28 10 55 69 55 120 0 42 2 47 18 40 9 -4 31 -8 47 -8 38 -1
43 24 19 100 -12 40 -28 65 -58 91 l-42 36 30 57 c34 65 29 83 -25 95 -68 15
-186 -37 -212 -92 -9 -19 -16 -23 -38 -18 -35 8 -106 -22 -143 -61 -46 -48
-72 -123 -67 -193 1 -10 11 -12 39 -7 l38 6 1 -44 c2 -48 26 -104 49 -113 8
-3 30 7 48 21 l35 26 0 -118 c0 -77 -5 -125 -13 -141 -13 -23 -13 -22 -20 20
-12 75 -62 103 -107 58 -17 -17 -20 -30 -17 -76 2 -38 -1 -57 -9 -60 -7 -3
-13 3 -13 14 -1 42 -114 235 -145 247 -11 4 -14 12 -10 26 5 16 -5 32 -44 70
-28 27 -51 52 -51 56 0 4 12 23 26 42 15 19 37 67 50 106 20 64 25 72 56 81
69 22 132 58 178 104 93 93 160 257 146 355 -6 40 -16 53 -79 112 -114 106
-264 165 -490 193 -43 5 -80 11 -81 13 -1 1 -15 29 -31 62 -76 150 -204 213
-309 151 -58 -34 -95 -75 -137 -153 l-36 -67 -68 -8 c-126 -14 -265 -54 -370
-107 -82 -41 -109 -61 -152 -110 -51 -59 -53 -63 -53 -120 0 -76 21 -137 76
-227 62 -99 144 -165 248 -198 36 -11 40 -16 52 -64 16 -60 38 -107 66 -138
l21 -22 -52 -57 c-28 -32 -51 -67 -51 -77 0 -10 -17 -38 -37 -62 -36 -40 -103
-162 -118 -213 -12 -42 -25 -11 -19 47 6 51 4 61 -15 80 -46 46 -96 17 -107
-63 -7 -46 -8 -47 -20 -25 -9 16 -13 65 -13 147 l0 123 31 -26 c17 -14 38 -25
46 -23 26 5 55 66 55 114 l0 43 36 -2 36 -2 -1 50 c-3 114 -118 231 -205 210
-19 -4 -28 1 -46 29 -31 49 -119 90 -178 84 -81 -10 -92 -36 -47 -107 l28 -44
-47 -47 c-38 -38 -49 -57 -58 -102 -7 -30 -9 -62 -5 -71 7 -19 59 -24 69 -7
13 22 25 8 25 -30 0 -48 26 -116 47 -124 8 -4 29 0 45 9 l30 14 -6 -37 c-3
-20 -8 -62 -12 -92 -6 -45 -8 -51 -16 -34 -5 11 -22 28 -38 37 -22 14 -34 15
-59 6 -17 -6 -36 -19 -41 -29 -12 -23 -13 -85 -1 -126 7 -26 5 -33 -16 -52
-28 -25 -24 -32 -58 108 -145 602 93 1257 576 1590 193 133 388 202 624 222
40 4 115 1 198 -7z m-84 -276 c47 -17 37 -29 -19 -22 -34 4 -50 2 -50 -6 0 -7
19 -11 49 -11 31 0 53 -5 61 -15 11 -13 1 -15 -76 -16 -121 -1 -157 -17 -44
-19 92 -2 132 -10 137 -26 2 -7 -33 -10 -106 -10 -61 1 -114 -3 -120 -9 -7 -7
25 -11 96 -12 58 -1 116 -4 129 -7 56 -14 13 -21 -146 -23 l-170 -2 16 32 c71
137 143 181 243 146z m306 -253 c196 -34 325 -78 415 -142 47 -34 80 -79 80
-111 0 -13 -5 -9 -16 12 -8 17 -27 43 -42 58 -34 36 -151 94 -217 107 -27 6
-61 13 -75 16 -14 3 -42 8 -63 11 l-37 5 36 -53 c20 -30 37 -56 39 -58 2 -1
21 9 42 25 l38 27 -38 -37 c-30 -30 -35 -41 -26 -52 6 -8 8 -14 3 -14 -5 0
-29 30 -52 66 -24 36 -49 63 -55 61 -7 -3 -11 -9 -10 -15 2 -6 -3 -9 -10 -6
-7 2 -28 -11 -47 -31 -41 -43 -62 -44 -87 -6 -10 16 -35 48 -57 71 l-38 42
-40 -40 -40 -40 20 -20 c12 -12 17 -24 12 -27 -10 -6 -29 10 -77 69 l-31 38
-37 -27 c-48 -37 -43 -59 14 -62 53 -2 68 -13 18 -13 -19 0 -42 -3 -50 -6 -10
-3 -33 13 -63 45 -27 28 -53 51 -59 51 -15 0 -57 -46 -81 -87 -22 -39 -39 -43
-30 -9 5 19 0 29 -20 45 -56 44 -75 36 -129 -58 -23 -39 -56 -59 -35 -21 6 12
10 23 8 24 -2 1 -20 15 -40 30 -36 27 -45 25 -39 -8 1 -4 -6 -14 -14 -20 -9
-7 -20 -27 -24 -46 -4 -23 -13 -36 -26 -39 -16 -3 -17 -1 -7 12 11 13 8 19
-24 41 l-38 26 -11 -28 c-7 -15 -12 -45 -13 -66 -1 -39 -23 -68 -31 -43 -6 18
-33 36 -53 37 -15 0 -18 -9 -18 -56 0 -52 1 -55 18 -43 14 11 15 11 5 -1 -7
-8 -13 -28 -13 -45 l1 -30 19 36 c108 205 744 296 1246 179 95 -22 134 -41
134 -65 0 -18 2 -18 -51 1 -76 26 -234 53 -382 65 -219 17 -445 0 -626 -47
-149 -39 -241 -86 -277 -143 -15 -24 -14 -24 17 6 71 66 214 121 394 150 165
27 518 24 676 -5 175 -33 277 -68 256 -88 -2 -3 -38 6 -80 20 -280 92 -766 94
-1032 6 -80 -27 -174 -80 -198 -112 -42 -57 -12 -113 88 -162 30 -14 59 -26
64 -26 6 0 11 -4 11 -10 0 -17 -24 -11 -88 20 -66 34 -129 89 -152 135 -8 17
-23 41 -32 55 -10 14 -25 56 -32 94 -12 57 -13 74 -2 100 48 114 270 207 586
246 114 13 519 5 625 -14z m-795 -451 c-7 -20 -9 -39 -6 -42 3 -4 6 -2 6 3 0
5 19 10 43 10 24 1 58 9 76 18 32 17 32 17 21 -4 -17 -33 -4 -36 26 -7 18 19
41 28 80 33 79 9 333 -1 372 -16 l33 -12 -29 -18 c-46 -28 -53 -98 -14 -142
20 -24 59 -23 72 1 13 26 13 87 -1 113 -9 17 -8 19 9 14 17 -6 19 -3 15 15
l-6 22 32 -19 c18 -10 39 -27 48 -36 21 -23 42 -86 43 -126 0 -28 -3 -32 -19
-27 -21 6 -61 -28 -61 -52 0 -19 39 -55 52 -47 8 5 9 -3 4 -27 -4 -22 -25 -53
-59 -87 -53 -55 -107 -91 -107 -72 0 5 5 10 12 10 6 0 8 3 5 6 -4 4 -14 1 -23
-7 -16 -12 -17 -12 -11 6 52 172 49 215 -16 283 -34 36 -120 72 -171 72 -75 0
-170 -50 -198 -105 -6 -11 7 -3 29 18 21 20 41 37 44 37 3 0 6 -13 6 -30 0
-36 25 -66 69 -82 30 -10 34 -16 34 -47 0 -60 -44 -89 -82 -54 -23 20 -24 0
-1 -22 12 -12 26 -15 52 -11 20 3 41 6 46 5 84 -4 99 -3 103 9 3 9 -3 11 -22
6 -37 -9 -66 19 -66 62 0 29 5 35 44 53 46 20 66 45 66 80 0 27 12 27 36 -1
34 -38 54 -76 54 -100 -1 -41 -53 -121 -100 -153 -39 -26 -54 -30 -110 -29
-83 1 -138 31 -189 102 -35 50 -36 31 -2 -43 17 -36 31 -70 31 -74 0 -9 -29
-7 -75 5 -27 7 -29 6 -16 -9 12 -15 11 -17 -4 -17 -58 0 -164 93 -203 180 -46
100 -38 297 15 378 20 33 27 21 13 -23z m1560 -145 c0 -5 -5 -10 -10 -10 -13
0 -112 -78 -123 -96 -4 -8 -13 -14 -19 -14 -7 0 -7 4 1 13 6 8 7 18 3 22 -4 5
-1 5 6 1 7 -4 12 -2 12 7 0 7 11 20 25 27 14 7 23 15 21 18 -10 9 -68 -35 -86
-65 -20 -34 -60 -62 -60 -42 0 8 -15 10 -45 6 -34 -3 -53 -13 -75 -36 -17 -17
-30 -35 -30 -40 0 -9 49 10 112 44 24 12 74 12 86 0 2 -2 -11 -19 -28 -37 -30
-30 -31 -30 -17 -6 10 15 17 29 17 32 0 6 -61 -14 -75 -24 -5 -4 -28 -13 -50
-20 -22 -7 -50 -19 -62 -26 -47 -30 -12 57 42 105 36 31 42 33 97 29 48 -4 59
-1 63 13 11 33 49 72 89 90 44 20 106 25 106 9z m-1884 -154 c25 -29 49 -84
41 -93 -1 -1 -25 9 -54 22 -29 14 -64 27 -78 31 -14 3 -25 9 -25 13 0 4 -9 7
-20 7 -11 0 -20 -3 -20 -7 0 -4 -8 -5 -18 -2 -15 4 -23 -7 -41 -55 -20 -53
-95 -160 -113 -161 -13 -2 -19 58 -9 96 13 47 59 116 72 107 6 -3 -1 -20 -16
-40 -17 -22 -23 -39 -18 -48 7 -12 11 -12 28 3 27 22 58 79 50 91 -3 6 1 10
10 10 13 0 16 6 11 24 -6 24 -6 24 25 9 16 -8 33 -12 37 -9 3 4 -4 10 -17 13
-23 6 -23 7 -5 20 13 10 36 13 73 10 48 -3 59 -8 87 -41z m457 -466 c84 -110
239 -269 284 -292 l32 -16 95 87 c53 47 111 104 129 126 32 38 147 190 175
231 7 10 1 -3 -14 -31 -57 -104 -236 -314 -346 -407 l-48 -40 -70 52 c-119 88
-288 287 -356 421 -31 59 -33 61 -45 40 -13 -20 -39 -29 -39 -14 0 4 14 21 31
39 l31 32 34 -67 c19 -36 67 -109 107 -161z m-228 37 c-7 -34 12 -84 59 -162
20 -32 23 -49 19 -85 -3 -25 -12 -52 -19 -61 -8 -8 -14 -25 -14 -37 0 -12 -5
-22 -12 -22 -6 0 -49 21 -95 47 l-83 47 6 35 c16 91 114 288 136 275 5 -3 6
-20 3 -37z m1096 0 c46 -73 69 -124 84 -189 8 -35 15 -66 15 -70 0 -7 -113
-78 -153 -96 -39 -17 -45 -15 -49 11 -2 12 -8 21 -14 20 -13 -3 -26 79 -17
104 3 10 22 43 42 73 59 91 63 102 58 148 -2 23 -2 42 2 42 3 0 18 -19 32 -43z
m-1176 -391 c109 -60 138 -83 130 -104 -3 -7 -5 -20 -5 -28 0 -13 -154 -133
-246 -191 -24 -16 -43 -31 -44 -35 0 -3 29 -23 65 -43 36 -20 70 -45 76 -56
14 -27 4 -66 -21 -79 -42 -22 -290 135 -290 183 0 13 14 36 33 53 34 33 148
115 210 153 20 12 37 26 37 29 -1 4 -29 23 -63 43 -72 42 -85 74 -46 116 29
30 38 28 164 -41z m1326 -84 c155 -162 239 -259 239 -278 0 -23 -68 -94 -90
-94 -9 0 -33 18 -54 39 l-39 40 -63 -32 -64 -31 0 -62 c0 -70 -11 -85 -78
-108 -37 -14 -43 -13 -58 1 -14 15 -16 46 -12 277 3 144 8 269 13 279 9 21 71
56 101 57 14 0 50 -30 105 -88z m-1026 -33 c97 -27 134 -87 135 -214 0 -155
-46 -260 -131 -303 -36 -18 -55 -21 -88 -16 -58 9 -124 54 -147 100 -28 57
-26 198 5 275 36 93 108 162 176 168 6 1 28 -4 50 -10z m625 -24 c10 -12 44
-196 84 -452 8 -55 -10 -75 -87 -92 -74 -16 -79 -13 -198 127 -51 59 -97 109
-102 111 -7 2 -8 -38 -3 -114 4 -82 3 -122 -5 -131 -14 -18 -120 -19 -137 -2
-9 9 -12 78 -12 250 l0 239 25 25 c24 24 44 26 86 9 14 -5 198 -213 221 -249
17 -26 18 8 3 88 -9 47 -15 105 -13 128 3 38 7 45 38 60 43 22 83 23 100 3z"/>
<path d="M1361 934 c-60 -76 -68 -254 -12 -254 19 0 45 45 62 107 21 76 24
125 9 154 -15 26 -35 24 -59 -7z"/>
</g>
</svg>
