<?xml version="1.0" standalone="no"?>
<!DOCTYPE svg PUBLIC "-//W3C//DTD SVG 20010904//EN"
 "http://www.w3.org/TR/2001/REC-SVG-20010904/DTD/svg10.dtd">
<svg version="1.0" xmlns="http://www.w3.org/2000/svg"
 width="512.000000pt" height="512.000000pt" viewBox="0 0 512.000000 512.000000"
 preserveAspectRatio="xMidYMid meet">
<metadata>
Created by potrace 1.16, written by Peter Selinger 2001-2019
</metadata>
<g transform="translate(0.000000,512.000000) scale(0.100000,-0.100000)"
fill="#000000" stroke="none">
<path d="M3398 4600 c-96 -12 -125 -19 -140 -37 -9 -11 -15 -60 -18 -151 l-5
-135 -66 -22 c-36 -12 -98 -37 -138 -55 l-72 -33 -90 89 c-80 80 -93 89 -127
89 -47 0 -127 -59 -258 -189 -130 -131 -189 -211 -189 -258 0 -34 9 -47 89
-127 l89 -90 -35 -78 c-20 -43 -44 -104 -54 -135 l-18 -58 -841 0 c-803 0
-843 -1 -858 -18 -16 -17 -17 -85 -17 -775 l0 -757 -22 -4 c-13 -3 -45 -7 -71
-10 -243 -28 -483 -249 -542 -498 -19 -82 -19 -245 1 -328 45 -193 181 -357
369 -446 144 -68 45 -65 1935 -62 l1705 3 86 31 c215 77 377 250 435 464 22
80 24 253 5 330 -33 135 -126 282 -229 365 -99 80 -256 144 -352 145 -31 1
-28 3 34 25 37 14 96 38 129 55 l61 30 91 -90 c114 -111 130 -114 226 -44 82
60 243 221 303 303 70 96 67 112 -44 225 l-90 92 34 70 c19 38 45 100 57 137
l22 67 121 0 c142 0 165 9 185 65 19 57 27 379 11 486 -18 126 -22 129 -185
129 l-131 0 -18 58 c-10 31 -36 95 -57 142 l-40 84 91 91 c109 110 113 127 49
213 -128 169 -345 362 -408 362 -17 0 -52 -28 -120 -94 l-96 -94 -50 26 c-27
15 -88 41 -135 58 l-85 33 -5 128 c-3 70 -9 135 -13 145 -12 24 -51 36 -159
48 -109 11 -250 11 -350 0z m280 -146 l31 -6 3 -112 c3 -107 4 -111 26 -114
13 -2 27 -13 31 -26 13 -34 32 -45 112 -67 41 -11 128 -46 195 -79 67 -33 131
-60 143 -60 14 0 56 33 116 91 l95 92 73 -74 c40 -41 93 -100 117 -132 l43
-58 -104 -105 c-99 -100 -103 -105 -89 -127 35 -55 90 -179 115 -259 24 -78
30 -88 51 -88 17 0 24 -6 24 -19 0 -11 12 -29 26 -40 23 -18 41 -21 129 -21
l103 0 7 -112 c3 -62 2 -147 -2 -188 l-8 -75 -113 -5 c-98 -4 -116 -8 -128
-24 -8 -11 -14 -26 -14 -33 0 -7 -11 -13 -24 -13 -21 0 -27 -10 -54 -97 -17
-54 -52 -138 -77 -187 l-46 -89 102 -103 102 -103 -43 -57 c-56 -74 -179 -204
-194 -204 -6 0 -49 38 -96 85 -68 69 -90 85 -114 85 -17 0 -80 -25 -140 -55
-61 -30 -121 -57 -133 -60 l-23 -6 0 179 0 180 53 30 c160 92 287 257 349 452
19 64 23 96 23 210 -1 156 -15 222 -75 345 -197 400 -699 550 -1084 323 -91
-53 -211 -170 -261 -252 l-40 -66 -179 0 -178 0 6 28 c4 15 32 76 62 136 29
60 54 118 54 129 0 11 -38 58 -92 113 l-92 94 24 27 c54 62 167 176 203 205
l38 31 93 -92 c58 -57 101 -91 115 -91 11 0 63 22 114 49 52 27 141 64 198 82
58 17 112 40 122 51 14 17 17 41 17 149 l0 128 53 4 c98 6 204 7 235 1z m47
-789 c89 -23 196 -80 265 -142 268 -243 278 -648 23 -900 -40 -40 -78 -73 -83
-73 -6 0 -10 150 -10 404 0 393 -1 404 -21 430 l-20 26 -405 0 c-222 0 -404 3
-404 6 0 16 79 99 131 138 116 87 225 124 369 125 55 1 121 -5 155 -14z
m-2525 -707 c0 -306 0 -312 22 -335 36 -39 66 -30 173 52 53 41 101 75 106 75
5 0 54 -34 110 -75 106 -79 131 -87 170 -56 l24 19 3 316 3 316 199 0 200 0 0
-710 0 -710 -705 0 -705 0 0 710 0 710 200 0 200 0 0 -312z m1558 -3 c2 -301
3 -310 24 -332 36 -38 64 -29 171 52 54 41 103 75 108 75 6 0 55 -34 108 -75
96 -74 124 -85 161 -65 35 19 40 64 40 367 l0 293 198 -2 197 -3 3 -708 2
-707 -707 2 -708 3 -3 695 c-1 382 0 701 3 708 3 10 50 12 202 10 l198 -3 3
-310z m-1970 -1590 c103 -44 149 -160 103 -260 -36 -78 -95 -115 -184 -115
-120 1 -214 115 -188 230 28 125 154 193 269 145z m1050 -6 c64 -32 102 -95
102 -171 0 -119 -75 -198 -189 -198 -87 0 -146 37 -182 115 -77 166 101 335
269 254z m1094 -9 c56 -38 82 -84 86 -155 8 -129 -74 -211 -204 -203 -70 4
-98 20 -147 81 -73 89 -33 237 78 289 55 26 141 20 187 -12z m1003 11 c100
-45 142 -164 93 -261 -36 -70 -86 -103 -162 -108 -105 -7 -181 48 -206 149
-39 156 126 288 275 220z"/>
</g>
</svg>
