<?xml version="1.0" standalone="no"?>
<!DOCTYPE svg PUBLIC "-//W3C//DTD SVG 20010904//EN"
 "http://www.w3.org/TR/2001/REC-SVG-20010904/DTD/svg10.dtd">
<svg version="1.0" xmlns="http://www.w3.org/2000/svg"
 width="360.000000pt" height="360.000000pt" viewBox="0 0 360.000000 360.000000"
 preserveAspectRatio="xMidYMid meet">
<metadata>
Created by potrace 1.16, written by Peter Selinger 2001-2019
</metadata>
<g transform="translate(0.000000,360.000000) scale(0.100000,-0.100000)"
fill="#000000" stroke="none">
<path d="M836 2895 c19 -27 34 -59 34 -70 0 -11 5 -27 11 -35 9 -13 10 -12 5
2 -3 10 0 20 6 24 7 4 8 3 4 -4 -9 -15 6 -16 20 -2 7 7 11 6 11 -4 0 -8 -4
-13 -8 -10 -4 2 -10 1 -13 -4 -2 -4 16 -7 42 -7 26 1 53 -3 61 -9 11 -8 13 -8
8 0 -4 6 2 19 12 28 14 13 21 14 26 6 6 -9 10 -9 16 1 7 12 9 12 9 0 0 -11 3
-11 17 0 9 8 14 9 11 4 -4 -6 -3 -17 3 -25 7 -13 9 -12 9 1 0 9 7 20 16 23 8
3 13 2 10 -2 -2 -4 -1 -14 5 -22 7 -13 9 -12 9 2 0 27 19 31 29 6 l10 -23 1
25 2 25 8 -25 c7 -21 8 -22 10 -5 l1 20 9 -20 c7 -16 9 -16 9 -4 1 9 8 20 17
23 10 4 13 2 8 -6 -5 -8 -2 -9 11 -4 16 6 16 4 4 -11 -9 -11 -10 -14 -1 -9 7
4 12 2 13 -6 1 -7 9 23 19 67 21 95 22 86 7 -64 l-12 -114 -325 -81 c-274 -68
-317 -81 -277 -84 27 -2 54 1 61 7 8 7 122 11 314 11 l301 1 3 84 c2 66 0 81
-9 73 -7 -6 -13 -7 -14 -2 -1 5 -5 -2 -9 -16 l-8 -25 -2 28 c-3 31 -4 36 -14
60 -5 9 -4 38 1 65 l8 47 458 0 459 -1 -5 46 -6 45 14 -50 c7 -27 14 -60 14
-72 1 -12 6 -25 13 -29 7 -4 8 -3 4 4 -4 7 -2 20 3 29 7 12 10 14 11 4 0 -10
3 -11 14 -2 11 9 16 9 21 0 6 -8 10 -7 16 2 7 12 9 12 9 0 0 -11 3 -11 17 0
11 10 14 10 9 2 -4 -7 -3 -13 1 -13 5 0 15 6 22 13 10 8 12 8 7 0 -3 -6 -2
-14 4 -18 6 -4 7 -11 4 -17 -5 -7 -2 -8 7 -2 20 13 211 12 228 0 11 -8 13 -8
7 2 -5 9 -3 12 7 10 9 -2 16 0 17 4 3 21 35 86 56 113 13 18 24 34 24 36 0 2
-443 4 -984 4 l-983 0 33 -50z"/>
<path d="M2173 2702 c23 -29 27 -43 27 -102 l0 -68 38 -5 c20 -2 147 -5 282
-6 153 -1 247 -5 250 -12 4 -6 36 -9 76 -7 68 3 66 4 -246 81 -173 44 -323 81
-334 84 -10 3 -16 1 -13 -4 4 -5 -1 -10 -9 -10 -10 0 -11 4 -4 11 5 5 10 17
10 26 -1 9 -6 6 -15 -10 -8 -14 -14 -52 -15 -84 0 -83 -8 -66 -11 26 -2 42 -5
75 -8 72 -2 -2 -16 6 -30 18 -24 22 -24 22 2 -10z"/>
<path d="M2557 2392 c-42 -43 -45 -52 -17 -52 18 0 20 -7 20 -85 l0 -85 35 0
35 0 0 85 c0 78 2 85 20 85 29 0 25 11 -18 53 l-38 37 -37 -38z"/>
<path d="M2737 2392 c-42 -43 -45 -52 -17 -52 19 0 20 -7 20 -90 0 -88 1 -91
26 -100 14 -6 30 -10 35 -10 5 0 9 44 9 99 0 99 0 100 26 103 25 3 25 4 -18
46 l-44 42 -37 -38z"/>
<path d="M1301 2324 c-18 -23 -21 -41 -21 -123 0 -53 4 -101 8 -107 21 -32 54
-34 459 -35 320 0 404 -3 389 -12 -43 -28 -116 -88 -113 -95 1 -4 -24 -34 -55
-66 -164 -166 -256 -404 -246 -638 l3 -88 -40 0 c-26 0 -35 -3 -26 -9 11 -7
11 -9 0 -14 -8 -3 5 -6 28 -6 43 -1 43 -1 57 -62 5 -24 1 -29 -54 -52 -60 -26
-65 -32 -54 -60 5 -13 13 -12 57 9 77 35 85 30 33 -26 -42 -45 -56 -70 -40
-70 4 0 27 17 52 37 27 22 47 32 49 26 3 -7 27 -48 54 -93 27 -45 47 -85 45
-89 -3 -4 0 -13 6 -21 8 -12 9 -12 4 3 -3 9 -2 17 3 17 5 0 11 -14 13 -30 l5
-30 -339 0 c-294 0 -338 2 -338 15 0 18 -19 20 -25 3 -3 -8 -25 -14 -50 -15
-24 -1 -52 -6 -62 -12 -13 -7 111 -10 425 -11 l443 0 72 -57 c80 -63 218 -132
317 -159 50 -14 101 -18 215 -18 137 0 158 3 235 28 151 50 258 115 362 222
167 170 264 434 243 659 -9 102 -34 228 -46 235 -5 4 -7 15 -3 25 5 11 4 16
-2 12 -6 -3 -23 20 -38 51 -139 285 -441 472 -763 472 -148 0 -328 -54 -450
-136 -36 -24 -68 -42 -70 -40 -2 2 28 25 68 51 80 54 186 98 290 122 38 8 68
17 66 20 -5 4 -131 -21 -159 -32 -16 -7 -18 1 -18 89 0 149 49 136 -504 136
l-465 0 -20 -26z m1460 -252 c279 -66 519 -311 589 -602 27 -114 27 -269 0
-374 -24 -96 -81 -231 -97 -231 -6 0 -15 -4 -20 -9 -5 -5 -2 -6 6 -1 9 5 12 3
9 -6 -3 -8 -9 -14 -14 -14 -5 0 -41 -33 -81 -73 -82 -82 -196 -160 -283 -194
-33 -12 -60 -26 -60 -30 0 -3 -8 -4 -19 -1 -10 3 -22 0 -25 -6 -4 -5 -14 -8
-24 -5 -14 5 -15 4 -2 -5 18 -13 43 -15 36 -3 -3 5 8 9 24 9 44 0 187 73 265
136 39 31 90 81 115 111 48 60 70 69 26 11 -115 -150 -291 -260 -487 -301
-102 -22 -278 -14 -374 16 -226 71 -424 241 -511 437 -14 31 -23 57 -21 60 3
2 12 -15 22 -39 26 -66 97 -167 164 -233 76 -74 80 -65 6 12 -71 74 -140 176
-175 260 -16 37 -30 59 -33 52 -3 -8 -3 2 0 21 3 24 2 31 -5 22 -7 -10 -9 -6
-9 15 0 15 -5 57 -11 93 -12 66 -9 144 10 260 17 106 104 272 190 365 144 155
313 242 508 264 65 7 216 -2 281 -17z"/>
<path d="M1874 1268 c3 -29 8 -87 11 -128 7 -86 41 -242 62 -282 16 -34 35
-37 28 -5 -25 109 -36 184 -47 315 -12 150 -12 152 -36 152 -22 0 -23 -2 -18
-52z"/>
<path d="M2002 1193 c12 -208 53 -422 76 -399 1 2 -4 47 -13 101 -13 82 -34
327 -35 403 0 14 -6 22 -18 22 -16 0 -17 -10 -10 -127z"/>
<path d="M2143 1168 c5 -123 32 -388 40 -394 1 -1 17 -5 36 -9 l33 -7 -5 48
c-3 27 -11 154 -18 282 l-13 232 -40 0 -39 0 6 -152z"/>
<path d="M2265 1198 c8 -168 25 -409 31 -430 3 -10 12 -18 21 -18 14 0 15 13
10 98 -4 53 -10 181 -13 285 l-7 187 -24 0 -24 0 6 -122z"/>
<path d="M2360 1197 c0 -170 19 -440 32 -452 7 -7 9 39 4 159 -3 93 -6 225 -6
293 0 103 -2 123 -15 123 -13 0 -15 -20 -15 -123z"/>
<path d="M2460 1167 c0 -262 11 -427 28 -427 10 0 13 7 8 23 -3 12 -6 142 -6
290 0 231 -2 267 -15 267 -13 0 -15 -24 -15 -153z"/>
<path d="M2530 1086 c0 -229 0 -234 20 -229 19 5 20 14 20 218 0 118 -3 220
-6 229 -3 9 -12 16 -20 16 -12 0 -14 -41 -14 -234z"/>
<path d="M2600 1095 c0 -213 1 -225 19 -225 25 0 31 56 31 278 l0 172 -25 0
-25 0 0 -225z"/>
<path d="M2698 1100 c-3 -192 -1 -220 12 -218 17 4 27 113 29 321 1 110 0 117
-19 117 -18 0 -19 -9 -22 -220z"/>
<path d="M2786 1298 c-3 -13 -7 -109 -8 -214 -4 -190 -4 -190 18 -186 20 3 22
12 27 115 4 62 7 156 7 210 0 90 -1 97 -20 97 -12 0 -21 -8 -24 -22z"/>
<path d="M860 1246 c0 -8 -15 -17 -36 -20 -44 -9 -107 -70 -124 -121 -7 -20
-10 -38 -8 -40 2 -3 18 1 35 7 25 9 37 9 60 -2 30 -15 30 -15 56 -5 15 6 17 0
17 -47 l0 -55 -327 -109 c-181 -60 -331 -108 -335 -107 -17 6 -19 -52 -4 -117
20 -89 61 -177 86 -185 21 -7 381 103 850 257 151 50 281 91 288 91 22 0 13
34 -15 52 l-26 18 79 23 c43 13 100 29 127 36 41 10 46 14 41 32 -4 12 -8 23
-10 25 -3 3 -51 -10 -109 -27 -57 -18 -113 -32 -124 -32 -24 0 -41 52 -38 119
1 28 -3 46 -11 49 -7 2 -10 8 -7 13 4 5 14 4 24 -3 13 -8 23 -8 37 1 18 12 18
12 -3 8 -34 -7 -28 9 7 22 17 5 30 17 30 25 0 8 3 21 6 30 5 14 -9 16 -119 16
-73 0 -128 -4 -132 -10 -3 -5 0 -10 7 -10 10 0 9 -3 -2 -11 -11 -8 -12 -12 -3
-16 9 -3 5 -15 -13 -39 -20 -26 -24 -37 -15 -47 9 -11 -10 -20 -97 -46 -59
-18 -114 -34 -122 -36 -8 -2 -22 -5 -30 -7 -11 -2 -16 7 -18 30 -5 47 4 65 24
54 12 -6 26 -4 45 7 23 13 33 14 60 4 18 -7 35 -11 37 -9 2 3 -2 22 -10 43
-17 49 -77 109 -118 118 -17 4 -34 13 -37 21 -7 18 -23 18 -23 0z m460 -236
c0 -23 -5 -30 -19 -30 -11 0 -23 -5 -26 -10 -4 -6 -10 -8 -14 -6 -6 4 -72 -9
-118 -23 -2 -1 -4 0 -5 1 -2 1 -14 -5 -28 -12 -14 -8 -36 -15 -50 -16 -14 -1
-26 -3 -27 -4 -5 -4 -22 -7 -49 -9 -14 0 -23 -5 -20 -9 2 -4 -3 -8 -12 -9 -44
-3 -62 -8 -62 -16 0 -4 -4 -6 -9 -2 -5 3 -12 1 -16 -5 -4 -6 -11 -8 -16 -5 -5
4 -14 3 -21 -1 -7 -4 -25 -9 -42 -11 -16 -2 -34 -8 -41 -13 -7 -5 -14 -7 -17
-5 -3 3 -18 0 -34 -6 -16 -7 -40 -13 -54 -14 -14 -1 -25 -3 -25 -4 0 -4 -38
-12 -57 -14 -10 -1 -18 -5 -18 -10 0 -4 -4 -5 -10 -2 -6 3 -10 1 -10 -6 0 -7
-3 -9 -6 -6 -4 3 -16 2 -27 -4 -15 -9 -18 -8 -11 3 6 10 5 11 -8 1 -8 -7 -18
-10 -21 -6 -4 3 -7 0 -7 -7 0 -7 -3 -11 -6 -8 -3 4 -20 2 -37 -3 -30 -9 -48
-14 -87 -24 -8 -2 -15 -4 -15 -5 0 -1 -9 -3 -19 -5 -10 -2 -23 -10 -27 -17 -7
-10 -9 -9 -9 4 0 13 21 24 82 43 46 14 286 88 533 164 248 77 453 140 458 140
4 1 7 -12 7 -29z"/>
</g>
</svg>
